<svg width="22" height="22" viewBox="0 0 22 22" fill="none" xmlns="http://www.w3.org/2000/svg">
<g clip-path="url(#clip0_21:23)">
<path fill-rule="evenodd" clip-rule="evenodd" d="M4.2625 15.4C4.32654 15.3146 4.40958 15.2453 4.50504 15.1976C4.6005 15.1499 4.70577 15.125 4.8125 15.125H8.25C8.43234 15.125 8.6072 15.1974 8.73614 15.3264C8.86507 15.4553 8.9375 15.6302 8.9375 15.8125C8.9375 15.9948 8.86507 16.1697 8.73614 16.2986C8.6072 16.4276 8.43234 16.5 8.25 16.5H5.15625L2.0625 20.625H19.9375L16.8438 16.5H13.75C13.5677 16.5 13.3928 16.4276 13.2639 16.2986C13.1349 16.1697 13.0625 15.9948 13.0625 15.8125C13.0625 15.6302 13.1349 15.4553 13.2639 15.3264C13.3928 15.1974 13.5677 15.125 13.75 15.125H17.1875C17.2942 15.125 17.3995 15.1499 17.495 15.1976C17.5904 15.2453 17.6735 15.3146 17.7375 15.4L21.8625 20.9C21.9391 21.0021 21.9858 21.1236 21.9972 21.2508C22.0087 21.3779 21.9845 21.5058 21.9274 21.62C21.8703 21.7342 21.7825 21.8302 21.6739 21.8973C21.5653 21.9644 21.4402 22 21.3125 22H0.6875C0.559823 22 0.434669 21.9644 0.32606 21.8973C0.217452 21.8302 0.129681 21.7342 0.0725816 21.62C0.0154828 21.5058 -0.00868781 21.3779 0.0027783 21.2508C0.0142444 21.1236 0.0608942 21.0021 0.1375 20.9L4.2625 15.4Z" fill="white"/>
<path fill-rule="evenodd" clip-rule="evenodd" d="M11 1.37498C10.4583 1.37498 9.9219 1.48167 9.42143 1.68898C8.92096 1.89628 8.46623 2.20012 8.08319 2.58316C7.70014 2.9662 7.3963 3.42094 7.189 3.92141C6.9817 4.42188 6.875 4.95828 6.875 5.49998C6.875 6.04168 6.9817 6.57808 7.189 7.07855C7.3963 7.57902 7.70014 8.03375 8.08319 8.41679C8.46623 8.79984 8.92096 9.10368 9.42143 9.31098C9.9219 9.51828 10.4583 9.62498 11 9.62498C12.094 9.62498 13.1432 9.19038 13.9168 8.41679C14.6904 7.64321 15.125 6.594 15.125 5.49998C15.125 4.40596 14.6904 3.35675 13.9168 2.58316C13.1432 1.80958 12.094 1.37498 11 1.37498V1.37498ZM5.5 5.49998C5.5001 4.44154 5.8056 3.40561 6.37986 2.51649C6.95411 1.62737 7.77271 0.92284 8.73744 0.487425C9.70218 0.0520107 10.7721 -0.095787 11.8187 0.0617665C12.8653 0.21932 13.8443 0.675532 14.6381 1.37566C15.4319 2.07579 16.0068 2.99009 16.2939 4.00886C16.5809 5.02764 16.5679 6.1076 16.2564 7.11916C15.9449 8.13072 15.3481 9.03092 14.5377 9.71173C13.7273 10.3925 12.7376 10.825 11.6875 10.9574V18.5625C11.6875 18.7448 11.6151 18.9197 11.4861 19.0486C11.3572 19.1775 11.1823 19.25 11 19.25C10.8177 19.25 10.6428 19.1775 10.5139 19.0486C10.3849 18.9197 10.3125 18.7448 10.3125 18.5625V10.9587C8.98283 10.7912 7.76007 10.144 6.87392 9.13855C5.98777 8.13315 5.49921 6.83879 5.5 5.4986V5.49998Z" fill="white"/>
</g>
<defs>
<clipPath id="clip0_21:23">
<rect width="22" height="22" fill="white"/>
</clipPath>
</defs>
</svg>
